<svg width="86" height="84" viewBox="0 0 86 84" fill="none" xmlns="http://www.w3.org/2000/svg">
<path fill-rule="evenodd" clip-rule="evenodd" d="M30.5849 84C31.5426 82.4292 32.5384 80.8832 33.5596 79.3464C33.6656 79.1896 33.7673 79.0369 33.8691 78.8843L33.8702 78.8826L34.1828 78.4129C35.8511 75.9052 37.5283 73.3842 39.4468 71.0592C39.512 70.9825 39.5754 70.9064 39.6383 70.831L39.6398 70.8292C39.6933 70.765 39.7464 70.7012 39.8 70.6379C40.4596 69.84 41.117 69.0486 41.8319 68.2996C42.6894 67.4209 43.3468 66.5507 43.917 65.4677C43.9957 65.3145 44.0723 65.1635 44.1489 65.0124C44.5702 64.1869 44.9128 63.4252 45.0468 62.5017L45.0548 62.4125L45.0593 62.3633L45.0659 62.2931L45.0932 62.0039L45.1009 61.9214L45.1064 61.8613C45.6787 62.0337 46.2213 62.1805 46.8085 62.2868L46.869 62.2912L46.9306 62.2958L47.095 62.3084C48.1081 62.3866 49.1349 62.4659 50 61.8613C50.634 61.0826 50.7404 60.34 50.8574 59.3741C51.017 57.9698 51.1574 56.74 51.9404 55.5315C52.3723 54.923 52.6383 54.4932 52.7404 53.7507C52.7489 53.5422 52.7574 53.34 52.766 53.1379H52.849L52.9685 52.341C52.8929 51.1561 52.8976 50.1156 53.6514 49.1337C54.0535 48.7549 54.4641 48.3805 54.8769 48.0145C55.6194 47.3464 56.1769 46.5762 56.7428 45.7571L56.7776 45.7069L56.8358 45.6226L56.8378 45.6196C56.898 45.5323 56.9589 45.4441 57.0216 45.3549C57.2365 45.0422 57.4492 44.7294 57.6599 44.4145L57.6625 44.423L58.7427 42.8017C58.874 42.4061 59.068 42.0191 59.3131 41.606L59.3139 41.6047C59.4328 41.4009 59.5517 41.1971 59.6727 40.9847L60.0536 40.3464C62.0004 37.0826 62.0004 37.0826 62.7153 33.4103C62.7354 33.2189 62.7476 33.103 62.7811 32.9937C62.8326 32.8258 62.9342 32.6734 63.1918 32.2869L63.4046 32.2869L63.4064 32.3319L63.4092 32.4096L63.4133 32.5327L63.4134 32.535L63.4178 32.6663L63.4217 32.7698C63.4983 34.1549 63.7259 35.2358 64.2855 36.5018C64.5259 37.1103 64.5621 37.5975 64.4685 38.2443L64.0429 38.8826H63.4046V39.5209L63.7208 39.6268L63.8284 39.6626L64.0429 39.7337C64.0324 39.7757 64.0221 39.8177 64.0118 39.8599L63.9861 39.9665L63.9734 40.0192L63.9731 40.0206L63.9365 40.172C63.8153 40.8869 63.8153 41.5635 63.8302 42.2869L64.2557 42.4996L64.2637 42.4013L64.2749 42.2651L64.2857 42.1402L64.2961 42.0209C64.5994 40.9931 65.7153 40.3389 66.7075 39.7572L66.7589 39.7271L68.8088 37.1973C68.8273 37.0521 68.8557 36.9049 68.8957 36.7549C68.9652 36.5382 68.966 36.5358 69.0339 36.3259L69.0362 36.3188C69.2936 35.3698 69.0872 34.4677 68.6064 33.6209C68.503 33.4585 68.4017 33.3002 68.3005 33.142L68.2979 33.1379L68.866 33.1464C69.1192 33.1464 69.3681 33.1485 69.6149 33.1507C70.2894 33.1571 70.9383 33.1549 71.6085 33.0656C74.1681 32.3762 76.0149 30.7315 77.4064 28.5337C78.3936 26.5741 78.2957 24.1251 77.6596 22.0741C76.634 19.589 75.4532 17.8656 73.017 16.6039C71.6489 16.0486 69.7298 15.3847 68.2979 15.9039V16.9677C68.1975 16.9677 68.1182 16.9677 68.0394 16.9737C67.742 16.9964 67.4512 17.1046 66.0638 17.6209L66.0027 17.6438L65.9474 17.6644L65.8063 17.7166C65.7141 17.7507 65.6227 17.7844 65.5319 17.8188C66.7532 16.8337 67.983 15.8592 69.2298 14.9081L69.5055 14.6988L69.7745 14.4954C71.0894 13.4932 72.4106 12.4996 73.7426 11.5188C74.0819 11.2706 74.4213 11.0203 74.7607 10.77L74.7638 10.7677L75.0395 10.5648L75.0407 10.5639L75.0416 10.5632L75.0444 10.5612C75.5467 10.1914 76.0495 9.82116 76.5553 9.45706C80.1217 6.89882 83.264 3.61881 85.9216 0H84.7015C84.5541 0.195644 84.4054 0.390556 84.2553 0.584733C84.2064 0.649859 84.1576 0.714704 84.1086 0.77968L84.1049 0.784637C84.0208 0.896324 83.9363 1.00842 83.851 1.12303C81.6021 4.00814 78.8915 6.70601 75.9106 8.82516C75.3106 9.25282 74.7191 9.69111 74.1276 10.1294C73.7851 10.3805 73.4446 10.6315 73.1042 10.8826C71.4 12.1337 69.7212 13.4145 68.0425 14.6975C66.8574 15.6039 65.6638 16.5018 64.468 17.3932C64.2092 16.8756 64.3418 16.5042 64.5114 16.0292C64.5454 15.9341 64.5808 15.8348 64.6149 15.7294C64.8595 15.0103 65.1063 14.2911 65.3595 13.5741C65.4915 13.1996 65.6191 12.8209 65.7404 12.4422C66.9234 8.79962 66.9234 8.79963 68.668 7.84005C68.9 7.73154 69.1319 7.62303 69.3702 7.51239C70.3829 6.97835 70.951 6.12729 71.3744 5.0741C71.6404 4.0358 71.6936 2.82729 71.3127 1.81665C71.2055 1.62904 71.1433 1.5202 71.0605 1.43045C70.946 1.30645 70.7921 1.21886 70.4255 1.01027C70.4484 0.672037 70.4749 0.335436 70.5051 0H0V84H2.4873C2.72869 83.3408 2.95085 82.6716 3.16809 81.989C3.44043 81.1422 3.71915 80.2975 3.99787 79.4528C4.03123 79.3489 4.06537 79.2449 4.09981 79.1401C4.12248 79.0711 4.14528 79.0016 4.16809 78.9315C4.74043 77.1975 5.34681 75.4784 5.97021 73.7635C6.00638 73.6665 6.04156 73.5686 6.0771 73.4697L6.07759 73.4684L6.12766 73.3294C7.2 70.3975 8.36809 67.506 9.57447 64.6273C9.94468 64.823 10.3149 65.0188 10.6851 65.2167C10.8396 65.2992 10.9173 65.3407 10.995 65.3819L11.0089 65.3893L11.1485 65.4631L11.3106 65.5486C12.3766 66.1741 13.2596 66.9826 14.0681 67.9124C14.2543 68.0965 14.3519 68.1931 14.4693 68.2458C14.5986 68.304 14.752 68.3087 15.0745 68.3188C15.9106 68.2252 16.1213 68.0103 16.6617 67.3805C16.8776 67.1413 16.879 67.1397 17.097 66.8943L17.0979 66.8932C17.5 66.3358 17.5 66.3358 17.517 65.5975C17.703 64.6068 18.1561 64.2559 18.8982 63.6812L19.017 63.589C19.1511 63.4805 19.2872 63.3698 19.4255 63.2549C19.8277 62.9294 20.2319 62.606 20.6383 62.2869C22.2043 61.0358 23.6894 59.7294 25.1426 58.3486C25.8362 57.689 26.5362 57.0422 27.2574 56.4145C29.2064 54.723 30.9021 52.9464 32.3404 50.7975C33.2818 50.9882 33.9449 51.4611 34.703 52.0017L34.7046 52.0029L34.8404 52.0996C34.9894 52.1996 35.1362 52.2975 35.2894 52.3975C35.7064 52.6932 36.0532 52.9613 36.383 53.3507C36.4357 53.8043 36.4594 54.0082 36.454 54.2111C36.4496 54.3762 36.426 54.5407 36.3831 54.839L36.383 54.84C38.2234 55.7336 40.0532 56.5379 41.9936 57.1911C42.3614 57.324 42.4875 57.3695 42.5911 57.4456C42.6451 57.4852 42.693 57.5331 42.7659 57.606C42.7999 57.9783 42.8255 58.3507 42.8468 58.723C42.9234 59.6379 42.9936 60.2954 43.617 61.0103C43.8979 61.1592 44.1809 61.3018 44.4681 61.4358C43.9192 63.9273 42.9383 65.7869 41.1936 67.6422C38.0681 71.0379 35.4851 74.8847 32.9255 78.7103C32.8363 78.842 32.7467 78.9743 32.6553 79.1124C31.5815 80.7163 30.5559 82.3458 29.5708 84H30.5849ZM62.817 11.4188C63.2192 10.7315 63.5489 10.0549 63.8298 9.30814C61.9979 9.30814 59.766 10.7443 58.8872 12.3337L58.7234 12.7124C58.364 12.7124 58.207 12.7124 58.0761 12.7709C57.9745 12.8163 57.8886 12.8969 57.7362 13.0401L57.6687 13.1272L57.6224 13.1868C57.1077 13.849 56.8023 14.242 56.834 15.1592L56.9228 15.4114C56.9558 15.5054 56.9885 15.5986 57.0213 15.6911L56.786 15.7599C56.3692 15.8819 55.9528 16.0038 55.5319 16.1166C54.6255 16.2932 53.802 16.4912 52.9722 16.904C52.606 17.1492 52.3199 17.3408 52.0763 17.5759C51.2105 18.4115 50.8776 19.7992 49.3617 26.1166L49.3636 26.1178C49.691 26.3361 49.8501 26.4422 50.0184 26.5311C50.1771 26.6149 50.3441 26.6835 50.6681 26.8167L51.4234 27.0996C51.8702 27.2698 52.317 27.4379 52.766 27.606C53.5957 26.7549 54.4319 25.9209 55.3319 25.1464C55.4613 25.0383 55.5865 24.9322 55.7116 24.8261L55.7128 24.8252C55.8681 24.6869 56.0191 24.5507 56.1702 24.4145C57.1809 23.5464 57.8 22.8358 58.1574 21.5422C58.9702 18.3145 60.4638 15.5358 62.1021 12.6592C62.1797 12.5228 62.2573 12.3889 62.3343 12.2559L62.3358 12.2533L62.3365 12.2522L62.3389 12.2481L62.3408 12.2447C62.3842 12.1699 62.4273 12.0954 62.4702 12.0209L62.6456 11.7153C62.6884 11.6411 62.7313 11.567 62.8159 11.4208L62.817 11.4188ZM56.6213 26.7422C56.7575 26.1081 56.8915 25.4741 57.0213 24.8401C56.8828 24.8401 56.7701 24.8401 56.6613 24.8606C56.1847 24.9504 55.7821 25.4334 53.617 28.0315L54.0681 28.2252C54.266 28.3081 54.4596 28.389 54.6553 28.4699C54.9711 28.6035 55.1167 28.6651 55.2636 28.7196C55.3875 28.7656 55.5132 28.8067 55.7447 28.8826C55.9742 28.7678 56.0799 28.715 56.1483 28.6315C56.2067 28.5603 56.2379 28.4667 56.2957 28.2932C56.3177 28.1939 56.338 28.0961 56.3583 27.999L56.3586 27.9973L56.3589 27.9958L56.3593 27.994L56.3789 27.8999L56.3979 27.8103C56.4118 27.7461 56.4254 27.6825 56.439 27.6193C56.4627 27.5085 56.4863 27.3987 56.5106 27.289C56.5489 27.1039 56.5851 26.923 56.6213 26.7422ZM46.8083 29.9464C46.5934 32.9252 45.6445 34.1741 43.5083 36.2124C43.2866 36.4149 43.1825 36.51 43.0849 36.6107C42.9991 36.6993 42.918 36.7925 42.7658 36.9676C42.5169 37.6123 42.5317 37.7635 42.7891 38.4315C42.9075 38.6556 43.0217 38.8735 43.1359 39.0912L43.1381 39.0954C43.5296 39.8571 43.9338 40.5528 44.4679 41.223C44.5964 40.9915 44.7277 40.7601 44.8594 40.5282L44.8605 40.5262L44.8611 40.5251C45.4982 39.4027 46.1429 38.2671 46.5147 37.0337C47.0274 35.3081 47.9487 33.7464 48.9104 32.2337L49.2462 31.7208L49.5742 31.223L46.8083 29.9464ZM35.9574 40.372C36.9 42.1805 37.3766 44.2975 37.234 46.3294C35.6915 46.0124 34.234 45.5656 32.7511 45.0422C31.6851 44.6869 30.9021 44.5209 29.7872 44.8401C28.8539 45.4234 28.2673 46.2353 27.634 47.1118L27.5936 47.1677C27.3681 47.4741 27.1426 47.7805 26.917 48.0847C26.8395 48.1894 26.7629 48.2941 26.6854 48.3999L26.5532 48.5805C25.952 49.3884 25.3392 50.1863 24.725 50.986L24.4809 51.3039C23.2936 52.8571 22.1319 54.4252 20.9936 56.0145C19.934 57.4932 18.8426 58.9486 17.7468 60.3996C17.3954 60.8644 17.0458 61.3312 16.6962 61.7979L16.6953 61.7991L16.6918 61.8039C16.518 62.0359 16.3442 62.2678 16.1702 62.4996L15.117 62.3464C14.7445 62.2954 14.3703 62.2578 13.9959 62.2202L13.8553 62.206C12.8787 62.0911 11.983 61.7741 11.0638 61.4358C11.334 60.5826 11.6489 59.7762 12.0298 58.9656L12.3489 58.2847L12.5074 57.9455L12.5079 57.9444L12.5092 57.9418C12.5671 57.8177 12.6255 57.6925 12.6851 57.5656C13.5617 55.6932 14.4128 53.8188 15.1574 51.8911C15.8234 50.2294 16.666 48.9039 18.3383 48.1379C18.466 48.0784 18.5936 48.0188 18.7234 47.9571C19.8156 47.4543 20.9287 46.9969 22.039 46.5406L22.3872 46.3975C23.8 45.8103 25.1702 45.1528 26.5426 44.4805C29.6234 42.9741 32.7851 41.672 35.9574 40.372ZM51.2766 32.0741C50.534 32.8401 49.7638 33.5273 48.9362 34.2018C48.9362 33.4764 49.1144 33.2221 49.4974 32.6757L49.5745 32.5656C49.6413 32.469 49.7074 32.373 49.7743 32.2759L49.934 32.0443L50.0303 31.9072L50.0312 31.906L50.0343 31.9016C50.0928 31.8181 50.1519 31.7338 50.2128 31.6486L51.2766 32.0741Z" fill="#030712"/>
</svg>
